# xmcd
# Copyright (C) 1995-1998 Ti Kan
#
# Track frame offsets:
#       150
#       13094
#       37530
#       53396
#       67215
#       81506
#       95295
#       107176
#       121077
#       136357
#       152098
#       166528
#       181990
#       194386
#       208497
#       225045
#       236481
#       250507
#       265830
#       280666
#       294316
#       307827
#       319389
#       331521
#       346096
#
# Disc length: 4797 seconds
#
# Revision: 2
# Processed by: cddbd v1.5.2PL0 Copyright (c) Steve Scherf et al.
# Submitted via: CD-Transfer v1.0
#
DISCID=4412bb19
DTITLE=Blues - 
DYEAR=1900
DGENRE=
TTITLE0=Shortnin'-Henduck
TTITLE1=Long John
TTITLE2=Crazy Blues
TTITLE3=St. Louis Blues
TTITLE4=Muddy Water
TTITLE5=Match Box Blues
TTITLE6=Billy Lyons And Stack-O-Lee
TTITLE7=''ma'' Rainey's Black Bottom
TTITLE8=Dark Was The Night, Cold Was The Ground
TTITLE9=Savoy Blues
TTITLE10=Downtown Blues
TTITLE11=Frankie
TTITLE12=Fishing Blues
TTITLE13=How Long, How Long Blues
TTITLE14=Canned Heat Blues
TTITLE15=Statesboro Blues
TTITLE16=It's Tight Like That
TTITLE17=Pine Top's Boogie Woogie
TTITLE18=Guitar Blues
TTITLE19=Pony Blues
TTITLE20=Diddie Wah Diddie
TTITLE21=K.c. Moan
TTITLE22=Standin' On The Corner (Blue Yodel #9)
TTITLE23=Sittin' On Top Of The World
TTITLE24=Preachin' The Blues
EXTD=
EXTT0=
EXTT1=
EXTT2=
EXTT3=
EXTT4=
EXTT5=
EXTT6=
EXTT7=
EXTT8=
EXTT9=
EXTT10=
EXTT11=
EXTT12=
EXTT13=
EXTT14=
EXTT15=
EXTT16=
EXTT17=
EXTT18=
EXTT19=
EXTT20=
EXTT21=
EXTT22=
EXTT23=
EXTT24=
PLAYORDER=
